<?xml version="1.0" encoding="UTF-8"?>
<svg width="24px" height="24px" viewBox="0 0 24 24" role="img" xmlns="http://www.w3.org/2000/svg">
    <title>Medium icon</title>
    <g>
        <path d="M6.2,0 C9.8,0 12.4,3.2 12.4,7.2 C12.4,11.2 9.8,14.4 6.2,14.4 C2.6,14.4 0,11.2 0,7.2 C0,3.2 2.6,0 6.2,0 Z M18.8,0.4 C20.7,0.4 22.4,3.5 22.4,7.2 L22.4,7.2 C22.4,10.9 20.7,14 18.8,14 C16.9,14 15.2,10.9 15.2,7.2 C15.2,3.5 16.9,0.4 18.8,0.4 Z M23.3,1.1 C23.9,1.1 24,3.9 24,7.2 C24,10.5 23.9,13.3 23.3,13.3 C22.7,13.3 22.1,10.5 22.1,7.2 C22.1,3.9 22.7,1.1 23.3,1.1 Z" fill="#000000"/>
    </g>
</svg>
